PathFileType	4	(X/Y/Z)	 1.9Hzhigh3min.trc
DataRate	CameraRate	NumFrames	NumMarkers	Units	OrigDataRate	OrigDataStartFrame	OrigNumFrames
200	200	9	43	m	200	876	1000
Frame#	Time	C7			LSH			RSH			MAN			RASI			LASI			HIPR			HIPL			RPSI			LPSI			COX			RTHI1			RTHI2			RTHI3			RTHI4			RLKN			RMKN			RSHA1			RSHA2			RSHA3			RSHA4			RLMAL			RMMAL			RHEEL			RMET5			RMET1			RTOE			LTHI1			LTHI2			LTHI3			LTHI4			LLKN			LMKN			LSHA1			LSHA2			LSHA3			LSHA4			LLMAL			LMMAL			LHEEL			LMET5			LMET1			LTOE			
		X1	Y1	Z1	X2	Y2	Z2	X3	Y3	Z3	X4	Y4	Z4	X5	Y5	Z5	X6	Y6	Z6	X7	Y7	Z7	X8	Y8	Z8	X9	Y9	Z9	X10	Y10	Z10	X11	Y11	Z11	X12	Y12	Z12	X13	Y13	Z13	X14	Y14	Z14	X15	Y15	Z15	X16	Y16	Z16	X17	Y17	Z17	X18	Y18	Z18	X19	Y19	Z19	X20	Y20	Z20	X21	Y21	Z21	X22	Y22	Z22	X23	Y23	Z23	X24	Y24	Z24	X25	Y25	Z25	X26	Y26	Z26	X27	Y27	Z27	X28	Y28	Z28	X29	Y29	Z29	X30	Y30	Z30	X31	Y31	Z31	X32	Y32	Z32	X33	Y33	Z33	X34	Y34	Z34	X35	Y35	Z35	X36	Y36	Z36	X37	Y37	Z37	X38	Y38	Z38	X39	Y39	Z39	X40	Y40	Z40	X41	Y41	Z41	X42	Y42	Z42	X43	Y43	Z43	
876	4.3800	-0.289125	1.553751	-0.520443	-0.225403	1.544668	-0.675618	-0.226389	1.538477	-0.367170	-0.163412	1.502790	-0.529047	-0.148092	1.063148	-0.403460	-0.164240	1.073111	-0.639443	-0.184285	1.151998	-0.384957	-0.196976	1.152147	-0.658951	-0.305077	1.118298	-0.465140	-0.313275	1.122577	-0.553234	-0.316070	1.118997	-0.511356	-0.246729	0.904981	-0.341195	-0.239257	0.843320	-0.344769	-0.167952	0.859865	-0.345934	-0.183492	0.917894	-0.343508	-0.217181	0.630898	-0.367812	-0.208415	0.617792	-0.488885	-0.300510	0.504864	-0.355945	-0.314238	0.465406	-0.366349	-0.245510	0.488614	-0.352090	-0.256000	0.449866	-0.357204	-0.303028	0.286518	-0.387404	-0.280955	0.288305	-0.461866	-0.351954	0.293964	-0.431694	-0.240615	0.176969	-0.376031	-0.207757	0.172044	-0.438548	-0.191965	0.148504	-0.436572	-0.270051	0.919684	-0.705599	-0.260296	0.861156	-0.709088	-0.189064	0.874214	-0.714424	-0.206570	0.932887	-0.711669	-0.224552	0.655151	-0.703321	-0.216425	0.631973	-0.586889	-0.325170	0.501824	-0.707971	-0.338725	0.464600	-0.698902	-0.279348	0.447725	-0.703254	-0.272450	0.490372	-0.711580	-0.353978	0.317625	-0.685612	-0.324156	0.328258	-0.612976	-0.400150	0.330018	-0.643833	-0.305864	0.201924	-0.690373	-0.269972	0.198075	-0.623106	-0.258955	0.177141	-0.631497	
877	4.3850	-0.288142	1.553115	-0.520162	-0.224476	1.543849	-0.675258	-0.225610	1.537668	-0.366928	-0.162601	1.501926	-0.528722	-0.148566	1.062181	-0.403282	-0.164235	1.072243	-0.639214	-0.184556	1.151019	-0.384837	-0.196731	1.151311	-0.658813	-0.305449	1.117524	-0.465336	-0.313402	1.121843	-0.553476	-0.316303	1.118275	-0.511590	-0.246368	0.903978	-0.340814	-0.238599	0.842358	-0.344350	-0.167371	0.859251	-0.345530	-0.183200	0.917202	-0.343129	-0.215324	0.630129	-0.367338	-0.206602	0.616845	-0.488380	-0.298671	0.504229	-0.354974	-0.312566	0.464804	-0.365339	-0.243676	0.487869	-0.351557	-0.254278	0.449141	-0.356607	-0.301912	0.285932	-0.386680	-0.280255	0.287681	-0.461287	-0.351118	0.293156	-0.430741	-0.238868	0.176881	-0.375522	-0.206282	0.172209	-0.438166	-0.190194	0.149143	-0.436044	-0.269471	0.918628	-0.705681	-0.259481	0.860169	-0.709282	-0.188263	0.873521	-0.714265	-0.206010	0.932112	-0.711444	-0.223833	0.654561	-0.703544	-0.214766	0.630669	-0.587410	-0.324404	0.501095	-0.708144	-0.337938	0.463819	-0.699028	-0.278551	0.447009	-0.703615	-0.271691	0.489663	-0.711913	-0.353096	0.316943	-0.685894	-0.323068	0.327484	-0.613288	-0.399237	0.328964	-0.643976	-0.304134	0.201832	-0.691369	-0.268037	0.197945	-0.624248	-0.256824	0.177262	-0.632867	
878	4.3900	-0.287142	1.552230	-0.519886	-0.223562	1.542846	-0.674893	-0.224846	1.536598	-0.366688	-0.161750	1.500816	-0.528394	-0.149015	1.060968	-0.403181	-0.164284	1.071105	-0.639043	-0.184739	1.149826	-0.384759	-0.196511	1.150252	-0.658679	-0.305723	1.116650	-0.465483	-0.313468	1.120995	-0.553663	-0.316460	1.117466	-0.511780	-0.246058	0.902751	-0.340478	-0.238018	0.841167	-0.343969	-0.166869	0.858373	-0.345194	-0.182952	0.916260	-0.342821	-0.213505	0.629111	-0.366875	-0.204860	0.615668	-0.487885	-0.296828	0.503350	-0.353986	-0.310883	0.463939	-0.364296	-0.241829	0.486888	-0.351008	-0.252550	0.448175	-0.355989	-0.300737	0.285083	-0.385937	-0.279456	0.286808	-0.460695	-0.350223	0.292030	-0.429836	-0.237081	0.176540	-0.374904	-0.204643	0.172178	-0.437682	-0.188233	0.149659	-0.435416	-0.268932	0.917314	-0.705739	-0.258679	0.858922	-0.709444	-0.187489	0.872601	-0.714180	-0.205497	0.931097	-0.711267	-0.223094	0.653694	-0.703781	-0.213174	0.629109	-0.587947	-0.323583	0.500078	-0.708325	-0.337082	0.462764	-0.699185	-0.277687	0.446024	-0.704002	-0.270878	0.488682	-0.712260	-0.352122	0.315979	-0.686216	-0.321901	0.326426	-0.613624	-0.398251	0.327613	-0.644175	-0.302287	0.201531	-0.692419	-0.265999	0.197567	-0.625433	-0.254577	0.177145	-0.634256	
879	4.3950	-0.286089	1.551079	-0.519592	-0.222664	1.541626	-0.674541	-0.224055	1.535248	-0.366509	-0.160894	1.499446	-0.528087	-0.149439	1.059510	-0.403157	-0.164384	1.069701	-0.638925	-0.184845	1.148423	-0.384715	-0.196320	1.148979	-0.658550	-0.305898	1.115678	-0.465582	-0.313482	1.120006	-0.553801	-0.316549	1.116547	-0.511919	-0.245813	0.901301	-0.340203	-0.237519	0.839751	-0.343642	-0.166444	0.857247	-0.344934	-0.182763	0.915070	-0.342597	-0.211721	0.627852	-0.366418	-0.203217	0.614265	-0.487388	-0.294972	0.502205	-0.352976	-0.309193	0.462813	-0.363219	-0.239983	0.485669	-0.350449	-0.250810	0.446965	-0.355360	-0.299519	0.283987	-0.385187	-0.278565	0.285678	-0.460092	-0.349273	0.290587	-0.428988	-0.235208	0.175984	-0.374212	-0.202837	0.171968	-0.437099	-0.186091	0.150011	-0.434683	-0.268445	0.915759	-0.705767	-0.257917	0.857428	-0.709569	-0.186764	0.871460	-0.714164	-0.205048	0.929845	-0.711133	-0.222320	0.652541	-0.704030	-0.211683	0.627326	-0.588475	-0.322704	0.498786	-0.708517	-0.336154	0.461443	-0.699372	-0.276758	0.444773	-0.704421	-0.270002	0.487437	-0.712624	-0.351060	0.314734	-0.686565	-0.320676	0.325087	-0.613973	-0.397200	0.325980	-0.644425	-0.300309	0.200983	-0.693495	-0.263856	0.196936	-0.626642	-0.252250	0.176805	-0.635682	
880	4.4000	-0.285037	1.549673	-0.519292	-0.221653	1.540146	-0.674181	-0.223262	1.533695	-0.366180	-0.160001	1.497812	-0.527780	-0.149839	1.057812	-0.403203	-0.164529	1.068034	-0.638853	-0.184874	1.146809	-0.384699	-0.196159	1.147492	-0.658425	-0.305980	1.114587	-0.465636	-0.313451	1.118881	-0.553892	-0.316556	1.115508	-0.511994	-0.245640	0.899633	-0.340000	-0.237099	0.838115	-0.343375	-0.166095	0.855886	-0.344746	-0.182643	0.913649	-0.342459	-0.209986	0.626348	-0.365968	-0.201696	0.612642	-0.486880	-0.293137	0.500778	-0.352000	-0.307505	0.461439	-0.362142	-0.238165	0.484212	-0.349882	-0.249076	0.445514	-0.354725	-0.298278	0.282620	-0.384450	-0.277573	0.284298	-0.459486	-0.348273	0.288837	-0.428194	-0.233225	0.175257	-0.373471	-0.200862	0.171594	-0.436430	-0.183748	0.150209	-0.433850	-0.268021	0.913975	-0.705771	-0.257220	0.855697	-0.709654	-0.186111	0.870095	-0.714212	-0.204679	0.928362	-0.711040	-0.221481	0.651094	-0.704293	-0.210298	0.625334	-0.588976	-0.321764	0.497214	-0.708720	-0.335168	0.459875	-0.699606	-0.275757	0.443249	-0.704852	-0.269062	0.485930	-0.712998	-0.349907	0.313219	-0.686954	-0.319403	0.323483	-0.614329	-0.396087	0.324062	-0.644705	-0.298213	0.200190	-0.694612	-0.261622	0.196060	-0.627856	-0.249798	0.176179	-0.637104	
881	4.4050	-0.283950	1.547979	-0.518979	-0.220569	1.538418	-0.673819	-0.222431	1.531811	-0.366007	-0.159074	1.495911	-0.527461	-0.150215	1.055884	-0.403316	-0.164718	1.066111	-0.638819	-0.184835	1.144976	-0.384705	-0.196038	1.145774	-0.658307	-0.305984	1.113372	-0.465647	-0.313385	1.117614	-0.553935	-0.316512	1.114340	-0.512022	-0.245543	0.897750	-0.339876	-0.236755	0.836265	-0.343169	-0.165826	0.854303	-0.344622	-0.182597	0.912009	-0.342401	-0.208296	0.624597	-0.365512	-0.200300	0.610818	-0.486362	-0.291325	0.499073	-0.351052	-0.305821	0.459817	-0.361062	-0.236381	0.482509	-0.349301	-0.247364	0.443808	-0.354092	-0.297030	0.280994	-0.383741	-0.276491	0.282668	-0.458886	-0.347223	0.286774	-0.427446	-0.231120	0.174365	-0.372689	-0.198728	0.171060	-0.435685	-0.181262	0.150249	-0.432952	-0.267674	0.911972	-0.705745	-0.256610	0.853737	-0.709699	-0.185548	0.868491	-0.714288	-0.204397	0.926649	-0.710979	-0.220569	0.649355	-0.704572	-0.209039	0.623159	-0.589441	-0.320756	0.495375	-0.708941	-0.334117	0.458061	-0.699881	-0.274681	0.441458	-0.705299	-0.268054	0.484163	-0.713387	-0.348661	0.311432	-0.687380	-0.318085	0.321616	-0.614692	-0.394908	0.321860	-0.645012	-0.295996	0.199171	-0.695724	-0.259318	0.194960	-0.629076	-0.247271	0.175379	-0.638526	
882	4.4100	-0.282854	1.546041	-0.518655	-0.219436	1.536416	-0.673466	-0.221584	1.529693	-0.365767	-0.158248	1.493824	-0.527150	-0.150573	1.053725	-0.403485	-0.164944	1.063937	-0.638814	-0.184731	1.142924	-0.384727	-0.195950	1.143820	-0.658193	-0.305920	1.112006	-0.465619	-0.313293	1.116179	-0.553927	-0.316426	1.113030	-0.511998	-0.245522	0.895658	-0.339818	-0.236481	0.834199	-0.343019	-0.165628	0.852509	-0.344549	-0.182631	0.910166	-0.342409	-0.206651	0.622611	-0.365040	-0.199024	0.608800	-0.485825	-0.289542	0.497111	-0.350115	-0.304149	0.457945	-0.360008	-0.234640	0.480556	-0.348715	-0.245679	0.441856	-0.353469	-0.295778	0.279125	-0.383064	-0.275335	0.280795	-0.458292	-0.346114	0.284404	-0.426751	-0.228872	0.173337	-0.371885	-0.196438	0.170392	-0.434883	-0.178607	0.150157	-0.432003	-0.267420	0.909753	-0.705683	-0.256102	0.851556	-0.709697	-0.185095	0.866646	-0.714382	-0.204213	0.924706	-0.710943	-0.219563	0.647326	-0.704869	-0.207893	0.620821	-0.589859	-0.319676	0.493275	-0.709181	-0.333012	0.455998	-0.700204	-0.273540	0.439394	-0.705745	-0.266974	0.482127	-0.713782	-0.347334	0.309375	-0.687812	-0.316722	0.319501	-0.615055	-0.393665	0.319378	-0.645334	-0.293713	0.197882	-0.696806	-0.256927	0.193587	-0.630250	-0.244663	0.174339	-0.639893	
883	4.4150	-0.281736	1.543811	-0.518322	-0.218130	1.534130	-0.673116	-0.220703	1.527317	-0.365518	-0.157204	1.491392	-0.526789	-0.150918	1.051339	-0.403698	-0.165205	1.061515	-0.638828	-0.184569	1.140653	-0.384764	-0.195895	1.141625	-0.658082	-0.305806	1.110483	-0.465559	-0.313191	1.114569	-0.553887	-0.316314	1.111543	-0.511936	-0.245574	0.893358	-0.339831	-0.236277	0.831929	-0.342925	-0.165496	0.850515	-0.344519	-0.182743	0.908115	-0.342479	-0.205049	0.620388	-0.364554	-0.197858	0.606594	-0.485270	-0.287799	0.494901	-0.349185	-0.302488	0.455807	-0.358978	-0.232942	0.478354	-0.348124	-0.244017	0.439656	-0.352859	-0.294518	0.277024	-0.382422	-0.274113	0.278678	-0.457710	-0.344956	0.281743	-0.426099	-0.226496	0.172192	-0.371056	-0.194007	0.169588	-0.434030	-0.175809	0.149926	-0.430995	-0.267262	0.907320	-0.705584	-0.255706	0.849157	-0.709653	-0.184760	0.864562	-0.714482	-0.204130	0.922536	-0.710925	-0.218460	0.645019	-0.705179	-0.206854	0.618341	-0.590229	-0.318521	0.490916	-0.709454	-0.331849	0.453680	-0.700567	-0.272327	0.437069	-0.706194	-0.265812	0.479830	-0.714189	-0.345927	0.307053	-0.688254	-0.315324	0.317144	-0.615422	-0.392354	0.316628	-0.645667	-0.291330	0.196317	-0.697851	-0.254478	0.191986	-0.631392	-0.242010	0.173064	-0.641230	
884	4.4200	-0.280600	1.541339	-0.517985	-0.216837	1.531580	-0.672769	-0.219794	1.524657	-0.365255	-0.156162	1.488734	-0.526407	-0.151259	1.048729	-0.403943	-0.165501	1.058853	-0.638853	-0.184353	1.138151	-0.384813	-0.195869	1.139176	-0.657974	-0.305661	1.108779	-0.465471	-0.313085	1.112768	-0.553810	-0.316165	1.109824	-0.511828	-0.245692	0.890854	-0.339907	-0.236134	0.829456	-0.342875	-0.165426	0.848328	-0.344523	-0.182928	0.905873	-0.342599	-0.203488	0.617937	-0.364061	-0.196779	0.604206	-0.484697	-0.286116	0.492461	-0.348270	-0.300854	0.453408	-0.358012	-0.231267	0.475892	-0.347517	-0.242396	0.437213	-0.352258	-0.293230	0.274692	-0.381796	-0.272829	0.276332	-0.457142	-0.343750	0.278802	-0.425485	-0.224004	0.170928	-0.370197	-0.191463	0.168634	-0.433141	-0.172888	0.149558	-0.429964	-0.267203	0.904676	-0.705457	-0.255429	0.846542	-0.709571	-0.184548	0.862241	-0.714583	-0.204147	0.920133	-0.710923	-0.217249	0.642434	-0.705502	-0.205907	0.615718	-0.590558	-0.317282	0.488302	-0.709764	-0.330615	0.451095	-0.700954	-0.271031	0.434494	-0.706630	-0.264568	0.477267	-0.714603	-0.344441	0.304472	-0.688703	-0.313869	0.314550	-0.615795	-0.390972	0.313616	-0.646009	-0.288906	0.194494	-0.698870	-0.251992	0.190170	-0.632481	-0.239286	0.171574	-0.642521	
